# xmcd CD database file
#
# Track frame offsets:
#	150
#	23540
#	44272
#	57580
#
# Disc length: 993 seconds
#
# Revision: 1
# Processed by: cddbd v1.5.1PL0 Copyright (c) Steve Scherf et al.
# Submitted via: CDex 1.51
#
DISCID=2b03df04
DTITLE=Kabach - Walk On The Wild Side
DYEAR=1989
DGENRE=Rock
TTITLE0=Venus
TTITLE1=Forever Now
TTITLE2=さりげない嘘が、僕の心を悩ます
TTITLE3=Angel
EXTD=YEAR: 1989
EXTT0=
EXTT1=
EXTT2=
EXTT3=
PLAYORDER=
